<?xml version="1.0" encoding="UTF-8" standalone="no"?><!DOCTYPE svg PUBLIC "-//W3C//DTD SVG 1.1//EN" "http://www.w3.org/Graphics/SVG/1.1/DTD/svg11.dtd"><svg width="100%" height="100%" viewBox="0 0 688 1175" version="1.1" xmlns="http://www.w3.org/2000/svg" xmlns:xlink="http://www.w3.org/1999/xlink" xml:space="preserve" xmlns:serif="http://www.serif.com/" style="fill-rule:evenodd;clip-rule:evenodd;stroke-linecap:round;stroke-linejoin:round;stroke-miterlimit:2;"><g id="_0" serif:id="0"><path id="LWPOLYLINE" d="M7.382,1.476l-5.906,5.906l0,1159.84l5.906,5.906l673.228,-0l5.906,-5.906l-0,-1159.84l-5.906,-5.906l-673.228,0Z" style="fill:none;stroke:#000;stroke-width:2.95px;"/></g><g id="Layer1"><g transform="matrix(4.16667,0,0,4.16667,-70.5126,-108.1)"><text x="43.199px" y="48.822px" style="font-family:'GortonDigitalHeavy', 'Gorton Digital';font-weight:700;font-style:italic;font-size:10px;">UPLINK</text><g transform="matrix(10,0,0,10,76.4635,62.8215)"></g><text x="46.957px" y="62.822px" style="font-family:'GortonDigitalHeavy', 'Gorton Digital';font-weight:700;font-style:italic;font-size:10px;">ACTY</text></g><g transform="matrix(41.6667,0,0,41.6667,562.837,124.489)"></g><text x="439.918px" y="124.489px" style="font-family:'GortonDigitalHeavy', 'Gorton Digital';font-weight:700;font-style:italic;font-size:41.667px;">TEMP</text><g transform="matrix(41.6667,0,0,41.6667,274.665,285.736)"></g><text x="98.563px" y="285.736px" style="font-family:'GortonDigitalHeavy', 'Gorton Digital';font-weight:700;font-style:italic;font-size:41.667px;">NO ATT</text><g transform="matrix(41.6667,0,0,41.6667,247.163,445.499)"></g><text x="126.065px" y="445.499px" style="font-family:'GortonDigitalHeavy', 'Gorton Digital';font-weight:700;font-style:italic;font-size:41.667px;">STBY</text><g transform="matrix(41.6667,0,0,41.6667,284.177,606.167)"></g><text x="89.051px" y="606.167px" style="font-family:'GortonDigitalHeavy', 'Gorton Digital';font-weight:700;font-style:italic;font-size:41.667px;">KEY REL</text><g transform="matrix(41.6667,0,0,41.6667,284.91,764.448)"></g><text x="88.318px" y="764.448px" style="font-family:'GortonDigitalHeavy', 'Gorton Digital';font-weight:700;font-style:italic;font-size:41.667px;">OPP ERR</text><g transform="matrix(4.16667,0,0,4.16667,244.251,53.1466)"><text x="42.372px" y="48.822px" style="font-family:'GortonDigitalHeavy', 'Gorton Digital';font-weight:700;font-style:italic;font-size:10px;">GIMBAL</text><g transform="matrix(10,0,0,10,75.9953,62.8215)"></g><text x="47.426px" y="62.822px" style="font-family:'GortonDigitalHeavy', 'Gorton Digital';font-weight:700;font-style:italic;font-size:10px;">LOCK</text></g><g transform="matrix(41.6667,0,0,41.6667,560.473,445.499)"></g><text x="442.283px" y="445.499px" style="font-family:'GortonDigitalHeavy', 'Gorton Digital';font-weight:700;font-style:italic;font-size:41.667px;">PROG</text><g transform="matrix(41.6667,0,0,41.6667,608.713,606.167)"></g><text x="394.043px" y="606.167px" style="font-family:'GortonDigitalHeavy', 'Gorton Digital';font-weight:700;font-style:italic;font-size:41.667px;">RESTART</text><g transform="matrix(41.6667,0,0,41.6667,606.668,764.448)"></g><text x="396.088px" y="764.448px" style="font-family:'GortonDigitalHeavy', 'Gorton Digital';font-weight:700;font-style:italic;font-size:41.667px;">TRACKER</text><g transform="matrix(41.6667,0,0,41.6667,547.674,923.418)"></g><text x="455.082px" y="923.418px" style="font-family:'GortonDigitalHeavy', 'Gorton Digital';font-weight:700;font-style:italic;font-size:41.667px;">ALT</text><g transform="matrix(41.6667,0,0,41.6667,546.137,1082.93)"></g><text x="456.619px" y="1082.93px" style="font-family:'GortonDigitalHeavy', 'Gorton Digital';font-weight:700;font-style:italic;font-size:41.667px;">VEL</text></g></svg>